<?xml version="1.0" encoding="UTF-8" standalone="no"?>
<!-- Created with Inkscape (http://www.inkscape.org/) -->

<svg
   version="1.1"
   id="svg1"
   width="3340.322"
   height="1909.1216"
   viewBox="0 0 3340.322 1909.1216"
   sodipodi:docname="allforgooners logo.svg"
   inkscape:version="1.4.2 (f4327f4, 2025-05-13)"
   xmlns:inkscape="http://www.inkscape.org/namespaces/inkscape"
   xmlns:sodipodi="http://sodipodi.sourceforge.net/DTD/sodipodi-0.dtd"
   xmlns="http://www.w3.org/2000/svg"
   xmlns:svg="http://www.w3.org/2000/svg">
  <defs
     id="defs1" />
  <sodipodi:namedview
     id="namedview1"
     pagecolor="#000000"
     bordercolor="#000000"
     borderopacity="0.25"
     inkscape:showpageshadow="2"
     inkscape:pageopacity="0.0"
     inkscape:pagecheckerboard="true"
     inkscape:deskcolor="#d1d1d1"
     inkscape:zoom="0.26532782"
     inkscape:cx="2023.9114"
     inkscape:cy="1192.864"
     inkscape:window-width="1920"
     inkscape:window-height="1017"
     inkscape:window-x="-8"
     inkscape:window-y="-8"
     inkscape:window-maximized="1"
     inkscape:current-layer="g1" />
  <g
     inkscape:groupmode="layer"
     inkscape:label="Image"
     id="g1"
     transform="translate(-84.942865,-67.635025)">
    <path
       style="fill:#ffffff"
       d="m 109.63918,1975.4374 c -11.629299,-3.4337 -23.682299,-19.7286 -24.614799,-33.2777 -1.0506,-15.2633 8.2394,-36.9469 17.172799,-40.083 1.9902,-0.6986 12.578,-0.9752 30.0717,-0.7856 32.4706,0.3519 51.5497,0.3472 271.5,-0.066 126.8641,-0.2386 172.3159,-0.6243 174.6347,-1.4818 1.7317,-0.6403 5.1092,-3.6209 7.5461,-6.6592 2.4263,-3.025 7.5407,-7.691 11.3653,-10.3688 8.7221,-6.1069 24.9275,-13.9744 33.4539,-16.2414 3.575,-0.9506 6.923,-2.0976 7.44,-2.549 1.7117,-1.4945 -1.9642,-7.1129 -13.9737,-21.3584 -57.1365,-67.7743 -88.5179,-116.293 -122.144,-188.8469 -40.9832,-88.4281 -60.2137,-182.4529 -53.9504,-263.7833 3.715,-48.2406 14.951,-97.1554 31.5324,-137.2736 18.4566,-44.6552 54.6238,-87.866 84.6623,-101.1504 8.1718,-3.614 21.1834,-7.7462 39.4334,-12.5231 25.8325,-6.7616 31.5745,-8.7216 56,-19.1151 24.086,-10.249 52.851,-20.2669 61.1797,-21.307 6.2138,-0.776 9.5477,-3.6059 12.8677,-10.9225 8.6866,-19.1432 25.8461,-43.409 41.5641,-58.777 27.0219,-26.4202 56.5995,-42.62409 111.8886,-61.29749 9.35,-3.1579 25.9146,-8.821 36.8102,-12.5846 13.0937,-4.5229 24.4958,-7.7303 33.6299,-9.46 7.6007,-1.4394 15.21,-3.4626 16.9094,-4.4961 3.5762,-2.1748 5.5725,-4.9073 17.1505,-23.475 18.47292,-29.625 37.06892,-49.9817 59.21062,-64.8163 16.0062,-10.7239 26.2191,-14.9428 50.2893,-20.7741 37.8541,-9.1707 47.4011,-12.603 91.5,-32.8963 30.8914,-14.2156 54.9517,-24.916 77.5,-34.4672 78.1011,-33.0824 95.3924,-40.5935 133.3851,-57.9403 12.8618,-5.8725 31.5368,-14.2051 41.5,-18.5168 9.9632,-4.3118 32.5149,-14.2392 50.1149,-22.061 17.6,-7.8218 41,-18.0449 52,-22.718 48.7263,-20.7005 59.9479,-25.5371 75,-32.3258 16.5743,-7.4752 24.8394,-11.1035 62,-27.2167 12.1,-5.2467 35.05,-15.2411 51,-22.20986 31.7757,-13.88315 59.4921,-25.80645 89.5,-38.50196 23.5923,-9.98126 51.419,-22.04562 67,-29.0481 6.325,-2.84261 21.85,-9.68222 34.5,-15.19912 12.65,-5.51691 30.65,-13.392 40,-17.50021 22.7782,-10.0083 68.0638,-29.40435 94.5,-40.47485 11.825,-4.95186 25.775,-10.93764 31,-13.30173 43.2996,-19.59124 47.6486,-21.1364 62.8068,-22.31453 12.5356,-0.9743 12.8668,-1.12873 28.1932,-13.14839 17.9183,-14.05231 28.424,-19.59582 65.4448,-34.5331 26.582,-10.72539 62.8989,-25.83356 86.5552,-36.00773 8.525,-3.66647 22.25,-9.49492 30.5,-12.95211 8.25,-3.4572 22.875,-9.75226 32.5,-13.98903 46.3048,-20.38266 63.5581,-27.80689 77.8259,-33.48917 5.6792,-2.26181 27.2792,-11.33818 48,-20.1697 40.4551,-17.24264 48.0579,-20.30846 69.6243,-28.07605 23.3259,-8.40133 23.3945,-8.44237 36.8885,-22.09324 18.2667,-18.47905 22.4626,-20.31123 69.1998,-30.21662 12.0788,-2.55996 27.1365,-6.37857 33.4615,-8.4858 15.8601,-5.28392 48.0469,-19.02856 75.5,-32.2405 12.65,-6.08788 25.7887,-12.32572 29.1971,-13.86187 12.2257,-5.51009 30.4147,-10.93105 48.9481,-14.58823 l 18.8548,-3.72059 29,-0.0577 c 31.2586,-0.0622 33.2583,0.16854 60.5212,6.98178 39.6929,9.91962 90.7081,35.50314 131.2746,65.83271 55.5908,41.56247 89.6806,75.60847 133.9124,133.74032 54.1324,71.14382 94.7108,148.0541 124.7943,236.52888 16.5635,48.71265 28.1312,98.3458 35.3931,151.8587 5.1715,38.1089 6.7007,103.7305 3.2391,139 -4.5865,46.7319 -15.191,90.0302 -33.3088,136 -18.6283,47.2653 -51.0504,93.80699 -83.6247,120.04259 -24.4502,19.6925 -45.6708,30.093 -109.2012,53.5212 -27.5638,10.1647 -47.0833,18.0729 -74.5,30.1833 -48.1716,21.278 -57.1972,23.6019 -87,22.4003 -15.5522,-0.6271 -18.6744,-1.1079 -26.9869,-4.1556 l -4.4869,-1.6452 -2.5131,2.8969 c -1.3822,1.5933 -4.8631,6.3288 -7.7352,10.5234 -8.7801,12.8224 -23.1051,23.6937 -46.7779,35.4996 -7.5781,3.7793 -60.4561,27.4456 -92.5,41.3998 -1.375,0.5988 -11.05,4.8088 -21.5,9.3557 -42.6866,18.5734 -61.0896,26.6517 -82.5,36.2149 -12.375,5.5274 -29.475,13.0659 -38,16.7522 -36.892,15.9526 -46.5638,20.3112 -64.7634,29.1856 -10.5948,5.1661 -23.2011,10.6798 -28.014,12.2526 -22.1494,7.238 -43.5857,7.799 -94.7226,2.4788 l -6,-0.6242 -10.7269,12.0343 c -19.0801,21.4058 -38.8747,36.0787 -68.2731,50.608 -100.2744,49.5575 -146.1625,71.5758 -149.1708,71.5758 -2.3522,0 -3.0596,3.9293 -3.781,21 -2.3043,54.5308 -13.5334,108.6029 -32.6282,157.1154 -7.2366,18.3853 -24.6555,52.5133 -35.4139,69.3846 -42.694,66.953 -103.3876,122.9527 -168.5061,155.4743 -8.2246,4.1075 -13.5637,8.0593 -12.1059,8.9602 0.6033,0.3729 260.8615,0.7913 578.3514,0.9298 379.1553,0.1654 578.5609,0.5935 581.0612,1.2476 8.311,2.1739 16.6762,13.9733 18.6904,26.3634 2.2328,13.7344 -2.3657,32.7899 -9.8613,40.864 -6.1702,6.6465 6.2588,6.0937 -153.1358,6.8109 -79.475,0.3576 -773.5332,0.5856 -1542.3515,0.5066 -1056.73972,-0.1086 -1398.80982,-0.4266 -1401.77822,-1.3031 z M 1611.062,1902.4025 c 1.7202,-1.0631 -2.7624,-4.3272 -10.1563,-7.3954 -12.1757,-5.0524 -18.77,-8.6219 -32.6368,-17.6664 -13.1064,-8.5486 -17.7888,-11.8571 -38.1724,-26.9723 -6.1449,-4.5566 -11.9139,-8.2847 -12.82,-8.2847 -0.9061,0 -5.1036,2.1057 -9.3276,4.6793 -10.6152,6.4676 -42.5742,21.7784 -61.0314,29.2387 -16.1613,6.5323 -49.1139,17.9439 -57.7325,19.9931 -6.0768,1.4448 -11.7758,4.6979 -10.8511,6.194 0.4682,0.7576 18.6922,0.8964 61.7995,0.4709 33.6245,-0.332 79.3605,-0.1938 101.6355,0.3071 37.998,0.8543 67.385,0.6151 69.2931,-0.5643 z m -768.29302,-0.7931 c 20.075,-0.8069 61.025,-2.1652 91,-3.0186 29.975,-0.8533 55.85,-1.7589 57.5,-2.0125 1.65,-0.2535 12.45002,-0.9476 24.00002,-1.5424 36.734,-1.8917 94.6543,-8.3056 131.4999,-14.5619 74.6364,-12.6729 146.103,-29.5896 196,-46.3947 41.6981,-14.0437 114.0969,-42.7859 118.4185,-47.012 1.8896,-1.8479 1.8785,-1.9333 -0.7324,-5.6798 -1.4579,-2.0921 -6.5037,-8.5288 -11.2127,-14.3038 -20.1587,-24.7218 -37.3168,-55.2208 -52.6012,-93.5 -5.0461,-12.6379 -14.9975,-41.4361 -18.3099,-52.9866 -2.883,-10.0536 -7.5623,-29.9303 -7.5623,-32.1235 0,-0.2144 -0.7033,-0.3899 -1.5629,-0.3899 -0.8596,0 -6.8608,5.0945 -13.336,11.321 -10.5768,10.1707 -59.819,52.8804 -71.1064,61.6734 -26.8535,20.9191 -60.9001,44.6298 -88.9947,61.9775 -27.3793,16.906 -30.7198,18.8983 -41.5,24.7517 -45.3328,24.6144 -102.8327,51.535 -148.9999,69.7594 -12.10002,4.7765 -28.52502,11.3307 -36.50002,14.565 -7.975,3.2343 -27.1,10.8048 -42.5,16.8234 -15.4,6.0185 -35.2,13.9534 -44,17.6329 -8.8,3.6796 -23.875,9.8066 -33.5,13.6155 -9.625,3.809 -20.875,8.2688 -25,9.9108 -4.125,1.6419 -10.65,3.8757 -14.5,4.964 -10.6733,3.0169 -18.5348,6.1402 -17.9278,7.1224 0.7468,1.2083 9.0201,1.1132 51.4278,-0.5913 z m 1029.53142,-34.3609 c 26.7463,-4.1226 47.5333,-9.8426 79.4685,-21.8677 24.4261,-9.1976 40,-16.3042 40,-18.2528 0,-1.0157 -25.6296,-43.4671 -37.1567,-61.5443 -5.2607,-8.25 -14.5185,-23.325 -20.5728,-33.5 -14.7431,-24.7774 -31.1575,-52.3362 -34.4388,-57.821 -4.2109,-7.0385 -5.8391,-8.193 -12.9107,-9.1543 -3.5315,-0.4801 -34.7161,-1.0196 -69.2989,-1.1988 l -62.8779,-0.3259 -1.6132,2.4294 c -0.8873,1.3362 -3.6527,5.1612 -6.1454,8.5 -4.846,6.4908 -28.7559,42.8615 -38.5041,58.5706 -3.2423,5.225 -9.4749,15.125 -13.8503,22 -4.3753,6.875 -14.115,22.625 -21.6436,35 -7.5287,12.375 -15.5515,25.425 -17.8285,29 -5.866,9.2097 -5.6581,10.2312 2.5909,12.7344 3.7125,1.1265 14.175,5.1884 23.25,9.0264 32.7316,13.8426 73.6321,24.224 107,27.1588 6.875,0.6047 13.85,1.2816 15.5,1.5043 1.65,0.2227 14.925,0.2575 29.5,0.077 20.225,-0.2501 29.5858,-0.8033 39.5315,-2.3363 z M 748.26898,1835.6681 c 6.6,-2.4083 21.225,-7.7427 32.5,-11.8541 11.275,-4.1115 41.65,-15.4791 67.5,-25.2613 25.85,-9.7822 51.0492,-18.9801 55.9983,-20.4398 6.3866,-1.8837 9.0949,-3.1554 9.331,-4.3813 0.3343,-1.7362 -5.8684,-9.9945 -17.3864,-23.1479 -3.3712,-3.85 -10.5456,-12.175 -15.9429,-18.5 -5.3974,-6.325 -12.6018,-14.65 -16.0099,-18.5 -9.8686,-11.1484 -33.624,-41.4445 -45.6175,-58.1776 -48.1587,-67.1905 -82.2243,-139.3343 -103.3257,-218.8224 -17.5829,-66.234 -23.7167,-118.1311 -20.6242,-174.5 1.1017,-20.0821 4.1771,-56.4605 5.6852,-67.25 0.8327,-5.958 0.019,-6.0564 -9.2749,-1.1225 -17.8917,9.4981 -33.6541,15.4724 -63.3331,24.0047 -25.3219,7.2796 -30.2407,9.2687 -37.8166,15.2923 -13.7581,10.9392 -32.6605,43.1648 -43.1569,73.5755 -18.1472,52.5771 -23.3469,111.8948 -15.0333,171.5 7.2771,52.1749 29.1386,114.6606 60.5262,173 13.0112,24.1835 31.3417,54.2267 43.0147,70.5 12.6492,17.6341 43.931,58.9223 54.8851,72.4417 18.7095,23.0909 40.636,46.0682 43.9345,46.0398 1.1805,-0.01 7.5464,-1.9888 14.1464,-4.3971 z m 861.11322,-56.8344 c 6.4628,-9.4875 19.1742,-28.275 28.2475,-41.75 39.9853,-59.3833 59.6339,-86.8199 67.0357,-93.6061 l 5.5693,-5.1061 -2.9829,-4.651 c -1.6406,-2.5581 -9.321,-13.9854 -17.0676,-25.394 -14.3745,-21.1697 -32.7033,-50.3153 -45.0579,-71.6489 -3.7922,-6.5484 -8.1596,-12.8484 -9.7053,-14 -2.7995,-2.0858 -3.1013,-2.0932 -78.4812,-1.9131 -80.7657,0.193 -111.8136,1.1231 -113.2158,3.3918 -0.4527,0.7326 -0.66,1.5959 -0.4605,1.9186 0.1994,0.3227 0.8609,6.1942 1.47,13.0478 3.5845,40.3361 15.0931,79.8382 35.1183,120.5399 24.7515,50.3082 56.2685,91.6966 89.9171,118.0797 7.3426,5.7571 25.9354,18.3414 27.0988,18.3414 0.4201,0 6.0516,-7.7625 12.5145,-17.25 z m 437.9442,15.9646 c 4.3721,-2.5809 19.5115,-14.5577 32.0539,-25.3578 22.0513,-18.9883 46.7236,-45.809 61.5989,-66.9628 21.896,-31.1377 43.3302,-78.7088 53.1407,-117.9405 4.996,-19.979 9.649,-48.1075 9.649,-58.3308 v -4.8086 l -16.6597,-0.6571 c -22.975,-0.9061 -112.4715,-0.7394 -142.8403,0.2661 -26.7009,0.884 -30.6226,1.6031 -33.9411,6.2239 -0.9294,1.2942 -4.7333,7.753 -8.453,14.353 -16.9642,30.0999 -27.9205,46.7976 -48.5193,73.9447 -6.7821,8.9383 -12.8722,17.8907 -13.5335,19.8943 -1.0606,3.2136 -0.9633,3.9784 0.8257,6.4907 1.1153,1.5664 2.7724,3.4659 3.6825,4.2212 2.2291,1.8499 88.1454,131.3119 94.4387,142.3037 2.8056,4.9002 4.9374,7.6628 5.8724,7.61 0.3452,-0.02 1.5535,-0.582 2.6851,-1.25 z m -1039.1171,-61.1408 c 4.9829,-2.4344 21.2096,-10.138 36.0596,-17.1192 40.6229,-19.0974 55.2272,-26.2741 75,-36.8557 9.9,-5.298 25.5013,-13.4346 34.6695,-18.0811 9.1683,-4.6466 16.9753,-8.9431 17.349,-9.5478 0.3932,-0.6361 -14.0312,-15.9256 -34.2316,-36.2847 -44.241,-44.5884 -54.171,-55.9026 -80.9078,-92.1853 -34.8254,-47.2594 -65.49352,-102.41 -83.41152,-150 -5.5585,-14.7631 -13.0666,-37.9423 -17.9774,-55.5 -15.0594,-53.8422 -22.7664,-124.5751 -20.0486,-184 1.363,-29.8005 3.0107,-45.1782 8.0336,-74.9743 2.2137,-13.1315 4.0249,-24.3041 4.0249,-24.8279 0,-2.7701 -62.6942,18.6921 -80.5,27.5577 -26.0711,12.981 -45.7511,33.3117 -62.5209,64.588 -12.0241,22.4254 -21.4995,56.2872 -26.6272,95.1565 -1.521,11.5292 -1.8474,20.7946 -1.8494,52.5 0,25.0979 0.4555,42.6773 1.3133,50.5 4.8507,44.2365 12.4794,81.5244 24.8576,121.5 19.9851,64.5425 60.5831,139.6672 106.7306,197.5 17.7817,22.2843 42.4424,50.1813 55.7574,63.0744 12.8153,12.4092 33.6905,31.4256 34.4974,31.4256 0.397,0 4.79872,-1.9918 9.78152,-4.4262 z m 234.8753,-137.7407 c 15.3223,-8.1856 111.3455,-95.2773 116.1036,-105.3042 1.2434,-2.6204 1.9991,-7.9254 2.6149,-18.3571 1.3917,-23.5765 6.0773,-56.4122 11.5116,-80.6718 13.4586,-60.0814 35.0259,-111.6297 65.2689,-156 24.1903,-35.4903 39.4283,-53.7442 69.3099,-83.0276 36.1697,-35.4458 70.6013,-58.5243 123.8754,-83.0302 45.7936,-21.0649 96.6771,-34.9752 145,-39.6392 17.9867,-1.736 75.6245,-1.728 91.5,0.013 52.9153,5.8024 80.8074,12.5831 123,29.9021 46.9782,19.2833 83.1232,39.8295 118.8649,67.5674 38.9601,30.2356 82.9214,81.3726 109.7933,127.7147 23.7925,41.0315 49.8503,105.7214 55.2859,137.25 0.7542,4.3747 1.8858,4.6177 7.8542,1.6865 8.1578,-4.0062 50.9614,-23.1287 78.2017,-34.9365 9.9,-4.2913 22.725,-9.8904 28.5,-12.4423 5.775,-2.552 17.25,-7.4021 25.5,-10.7779 20.4307,-8.3603 20.1341,-8.1119 13.4235,-11.2357 -2.9829,-1.3885 -5.9659,-2.529 -6.6288,-2.5343 -2.2626,-0.018 -22.7669,-9.205 -40.2947,-18.0533 -18.4476,-9.3127 -41.7927,-22.4724 -58.5,-32.9767 -27.9914,-17.5989 -64.2553,-47.568 -96.075,-79.398 -23.8295,-23.8372 -33.9224,-35.3374 -50.5353,-57.5818 -39.8516,-53.3606 -65.8019,-102.6664 -94.4732,-179.49999 -11.4141,-30.5875 -27.359,-87.9631 -32.9295,-118.4918 -10.2252,-56.039 -12.3711,-120.0017 -5.8883,-175.5082 6.6655,-57.07 25.7678,-123.00365 45.5713,-157.29445 2.6565,-4.59981 4.83,-8.60159 4.83,-8.89283 0,-1.00678 -5.124,0.76337 -13.3087,4.59764 -4.5189,2.117 -14.2856,6.34843 -21.7038,9.40319 -26.5015,10.91324 -33.0876,13.73455 -53.1545,22.77001 -23.2089,10.45018 -49.7408,21.9465 -70.833,30.69208 -7.975,3.30671 -24.625,10.38746 -37,15.73506 -12.375,5.3476 -25.2,10.8342 -28.5,12.1925 -8.2546,3.3977 -32.6276,14.1428 -66.5,29.3172 -47.0449,21.0756 -58.3896,26.0603 -129,56.6805 -18.425,7.99 -40.25,17.4576 -48.5,21.0391 -8.25,3.5815 -25.35,11.2333 -38,17.0039 -23.5139,10.7265 -29.2941,13.2762 -52,22.938 -7.15,3.0425 -24.7,10.7121 -39,17.0436 -29.1925,12.9255 -38.6733,17.0506 -73,31.7624 -13.2,5.6573 -30.075,13.0908 -37.5,16.519 -25.9479,11.9803 -37.6411,17.2503 -56.5,25.4635 -72.5212,31.584 -93.8925,41.1141 -116,51.728 -38.2494,18.3636 -44.7931,20.6791 -74.5,26.3618 -10.175,1.9464 -21.8547,4.4405 -25.9549,5.5425 -21.4093,5.754 -36.5656,20.4688 -53.9693,52.3973 -26.7465,49.06869 -39.9947,98.57529 -44.1549,164.99999 -1.4257,22.7639 -0.6156,70.4539 1.4949,88 4.0283,33.4904 12.4223,71.9164 23.1556,106 20.2586,64.3316 59.6206,132.1441 109.9959,189.5 12.9541,14.7491 67.1766,68.0751 78.9327,77.6275 9.2126,7.4858 11.0101,8.2387 14.8157,6.2056 z m 922.593,-137.852 c 19.4748,-0.4942 35.7596,-1.2546 36.1885,-1.6898 0.9269,-0.9407 -2.1879,-26.4028 -5.1205,-41.8562 -11.4128,-60.1418 -40.0503,-119.444 -81.7782,-169.3453 -20.9642,-25.0706 -61.0132,-61.1765 -65.0738,-58.6668 -0.5144,0.3178 -2.1793,2.7152 -3.6998,5.3275 -1.5205,2.6122 -7.9497,12.1745 -14.2871,21.2495 -13.4609,19.2758 -43.3125,63.8207 -57.6378,86.0079 -12.8211,19.8575 -24.6061,36.4025 -29.5817,41.53 -2.1551,2.2208 -3.9183,4.527 -3.9183,5.1249 0,0.598 8.3645,13.5553 18.5878,28.7941 10.2233,15.2387 23.4232,35.4325 29.333,44.875 16.1423,25.7913 22.1159,34.8783 24.9453,37.9463 l 2.5622,2.7783 57.0359,-0.5885 c 31.3697,-0.3236 72.9697,-0.9927 92.4445,-1.4869 z m -530.6911,-0.5111 c 0.8064,-0.3095 2.5058,-2.4543 3.7763,-4.7663 13.5584,-24.6715 57.0537,-90.3612 69.1853,-104.4885 1.5515,-1.8066 2.8208,-4.3546 2.8208,-5.6621 0,-1.3076 -2.0343,-5.0044 -4.5208,-8.2152 -12.3429,-15.939 -44.0923,-63.2049 -76.3318,-113.6364 -19.4909,-30.4893 -26.0069,-39.667 -28.1474,-39.6456 -2.2427,0.022 -4.4297,1.5245 -17.8629,12.2691 -23.6208,18.8931 -51.4604,47.8348 -67.74,70.4217 -21.3811,29.6647 -41.6703,70.602 -54.2291,109.4177 -7.5852,23.4439 -16.559,61.3756 -18.694,79.0189 l -0.6878,5.6832 3.8569,0.4801 c 5.3308,0.6636 186.7588,-0.1798 188.5745,-0.8766 z m 258.6129,-138.3005 c 1.0068,-1.0068 4.2473,-5.8443 7.2012,-10.75 2.954,-4.9057 7.6834,-12.5195 10.51,-16.9195 2.8265,-4.4 10.7823,-17.225 17.6795,-28.5 6.8972,-11.275 17.6069,-28.375 23.7994,-38 6.1925,-9.625 14.1848,-22.225 17.7605,-28 3.5758,-5.775 10.3834,-16.35 15.1281,-23.5 8.5273,-12.8502 12.9143,-21.0099 11.8617,-22.0625 -1.1167,-1.1166 -35.2008,-14.5537 -51.9165,-20.467 -42.6996,-15.1056 -74.2671,-21.4641 -112.3544,-22.631 -20.879,-0.6396 -45.2374,0.5831 -65,3.2628 -26.5448,3.5995 -60.0115,12.8601 -83.3185,23.0553 -11.8083,5.1653 -26.6587,11.411 -31.9637,13.4431 -2.2357,0.8565 -2.2478,0.9406 -0.5955,4.1368 0.9276,1.7944 2.9212,4.8375 4.4301,6.7625 1.5089,1.925 8.9207,13.625 16.4706,26 7.5499,12.375 19.9068,32.4 27.4598,44.5 7.5531,12.1 18.0731,29.1033 23.3779,37.7852 19.5307,31.9641 31.6586,47.5478 39.2925,50.4886 1.7956,0.6918 20.5712,1.423 50.8468,1.9802 80.6467,1.4844 77.2364,1.5096 79.3305,-0.5845 z m 708.1695,-46.7267 c 9.3023,-3.3606 18.7046,-7.4867 50.5,-22.1617 13.75,-6.3462 36.25,-16.6025 50,-22.7916 24.6679,-11.1035 50.49,-22.8485 94.5,-42.9828 12.375,-5.6615 36.2391,-16.5747 53.0313,-24.2517 16.7922,-7.6769 38.6338,-17.2131 48.5369,-21.1915 19.8958,-7.9928 23.5017,-10.0625 21.9318,-12.5886 -0.55,-0.885 -5.1165,-3.3312 -10.1478,-5.4359 -21.2618,-8.8945 -67.5371,-37.158 -94.3522,-57.6274 -36.2315,-27.6575 -74.9092,-64.81359 -103.8852,-99.79829 -38.5843,-46.5855 -62.7888,-83.988 -91.4892,-141.3755 -27.2437,-54.4748 -46.389,-108.905 -61.0614,-173.5979 -11.8081,-52.0634 -16.3515,-88.56631 -17.256,-138.63991 -0.7718,-42.72818 1.9939,-82.17331 8.2736,-118 5.867,-33.47215 15.6326,-71.14793 23.9655,-92.45927 4.7443,-12.13359 5.2556,-14.54073 3.0887,-14.54073 -0.7502,0 -7.8377,3.11687 -15.75,6.92638 -7.9123,3.80952 -21.136,9.63874 -29.386,12.95384 -82.6576,33.21432 -114.9421,46.72476 -191.5,80.13896 -17.875,7.80166 -40.825,17.75324 -51,22.11461 -40.7401,17.46267 -46.2887,20.22623 -58,28.88782 -25.5069,18.86467 -59.0915,69.46017 -79.308,119.47839 -17.3367,42.89331 -29.2314,94.90931 -32.7545,143.23721 -4.3058,59.064 6.3599,136.0929 27.6936,200.0068 27.535,82.4922 62.7867,147.27429 112.7799,207.25599 45.1009,54.1118 106.3463,102.3369 164.0498,129.174 38.403,17.8607 75.546,29.7335 112.0392,35.8134 34.8998,5.8144 52.3598,6.2024 65.5,1.4554 z m 453.4854,-192.511 c 8.5597,-2.6438 28.6107,-10.7883 49.0146,-19.9093 31.7389,-14.1879 47.0506,-20.2909 87,-34.6767 40.825,-14.7012 54.7478,-22.5238 73.529,-41.31279 30.2384,-30.2509 54.6277,-80.5066 69.9571,-144.151 6.462,-26.829 9.2377,-56.8014 9.2499,-99.882 0.016,-55.4347 -4.7839,-95.6009 -17.386,-145.5 -8.0832,-32.00604 -26.4501,-85.21597 -39.8681,-115.50001 -2.0713,-4.675 -6.1267,-13.9 -9.0119,-20.5 -18.6362,-42.63078 -44.0281,-85.00633 -78.1968,-130.5 -33.0861,-44.05212 -57.677,-70.57398 -92.1951,-99.4346 -40.5049,-33.86619 -76.4078,-55.79942 -112.9892,-69.02572 -37.0614,-13.39981 -66.6533,-15.81279 -99.0959,-8.08044 -22.7228,5.41574 -41.6876,13.48361 -80.0738,34.06445 -31.5366,16.9084 -46.717,24.08918 -64.15,30.34488 -12.6709,4.54683 -31.4182,9.57341 -45.4575,12.18818 -7.8374,1.45969 -11.208,4.07689 -17.9572,13.94325 -22.2937,32.59041 -47.4816,103.58753 -57.2959,161.5 -5.0484,29.7899 -7.1912,51.0508 -8.1132,80.5 -2.3472,74.97256 15.5264,175.36301 44.0652,247.50001 20.8252,52.6395 53.294,112.2185 80.3832,147.5 31.2919,40.7552 53.1374,65.1768 80.0072,89.4418 36.348,32.82449 61.76,50.61319 106.644,74.65199 24.6217,13.1868 82.6616,34.4121 104.455,38.1994 5.7813,1.0047 11.1878,0.5837 17.4854,-1.3614 z m 71.4664,-120.42749 c -34.9454,-4.2364 -63.7408,-15.6153 -99.7654,-39.4235 -15.8078,-10.4472 -27.9437,-20.6836 -45.0753,-38.0199 -60.4889,-61.2121 -100.2877,-127.6993 -137.4134,-229.5609 -16.0052,-43.9134 -24.229,-75.1503 -32.1191,-122.00001 -4.7217,-28.0365 -6.5737,-47.27569 -7.2677,-75.5 -1.403,-57.05812 5.8918,-102.47302 23.3712,-145.5 15.1401,-37.26865 37.4298,-63.7887 64.7323,-77.01761 19.6517,-9.52189 38.0974,-14.01869 62.0856,-15.13559 27.2377,-1.26819 49.6738,4.72448 86.7102,23.16029 40.5803,20.19991 81.1268,56.31822 121.358,108.10421 16.1016,20.72614 39.8716,56.92844 54.4548,82.93584 18.2903,32.61874 36.6798,75.54851 52.6536,122.91815 21.1552,62.73522 32.8164,142.72212 29.489,202.27152 -5.4979,98.3925 -35.969,161.9676 -90.8843,189.6217 -15.2183,7.6635 -29.89,11.652 -50.1373,13.6299 -12.7419,1.2447 -18.6672,1.1556 -32.1922,-0.4841 z m 35.2439,-76.6258 c 29.3327,-8.1285 47.2391,-32.2545 58.7351,-79.1364 5.1231,-20.8925 6.5004,-34.2159 6.4863,-62.7421 -0.027,-54.3691 -7.0171,-102.1152 -22.3996,-153 -22.2918,-73.74067 -53.1329,-134.78531 -98.7708,-195.50001 -14.4724,-19.25356 -39.0772,-47.49581 -49.3463,-56.64168 -21.6506,-19.28229 -48.3457,-35.59432 -68.4004,-41.79595 -14.125,-4.36796 -35.2071,-3.51124 -50.025,2.03288 -7.667,2.86857 -22.1452,12.74007 -26.6439,18.16626 -19.6447,23.6949 -30.3272,56.76318 -33.9305,105.03365 -2.9862,40.00508 1.2595,84.57997 13.164,138.20484 11.4948,51.77951 26.1869,92.04391 53.6307,146.97741 26.2011,52.4461 54.3899,93.2524 83.8455,121.3754 34.3436,32.7898 71.3235,54.2738 99.9592,58.0728 4.4,0.5837 9.35,1.2416 11,1.462 5.0387,0.6729 15.3112,-0.4627 22.6957,-2.5091 z"
       id="path8" />
  </g>
</svg>
